<svg width="32" height="32" viewBox="0 0 32 32" fill="none" xmlns="http://www.w3.org/2000/svg">
<g clip-path="url(#clip0)">
<rect x="4" y="4" width="24" height="24" fill="white"/>
<path fill-rule="evenodd" clip-rule="evenodd" d="M21.36 23.5891H24.5241L23.0919 20.3922C22.11 20.6309 21.1103 20.7547 20.0922 20.7469C20.4166 21.4762 20.8222 22.3859 21.36 23.5891ZM9.39813 19.4916L7.56281 23.5891H10.7044C11.7319 21.3291 12.2913 20.0941 12.6606 19.2669C11.5522 19.0938 10.5056 19.1228 9.39813 19.4916ZM20.7756 15.2213L17.6247 8.1875H14.4613L12.0013 13.6788C12.4203 13.7041 12.8466 13.7559 13.2841 13.8347C13.81 13.9291 14.3284 14.0541 14.8431 14.1906C15.1634 13.4484 15.5559 12.5441 16.0431 11.4247C16.6906 12.9125 17.1759 14.0322 17.5575 14.915C17.7825 14.9656 18.0075 15.0128 18.2344 15.0541C19.1131 15.2128 19.9509 15.2694 20.7756 15.2213Z" fill="#133562"/>
<path fill-rule="evenodd" clip-rule="evenodd" d="M7.78781 15.0013C9.57594 14.1653 11.2647 13.9863 13.195 14.3322C14.8681 14.6319 16.4669 15.2472 18.1444 15.5513C20.2012 15.9238 22.0309 15.7638 23.9966 15.0338L24.5241 14.8378V16.6481L24.2631 16.7403C22.7622 17.2706 21.2184 17.5306 19.6241 17.4513C18.4903 17.3947 17.3819 17.1691 16.2869 16.8797C15.3322 16.6278 14.3881 16.3288 13.4231 16.1194C11.9353 15.7969 10.5891 15.7634 9.13531 16.2709C8.79062 16.3913 8.455 16.5366 8.12875 16.7003L7.5625 16.9841V15.1066L7.78781 15.0013Z" fill="#46C3D4"/>
<path fill-rule="evenodd" clip-rule="evenodd" d="M7.78781 17.7778C9.57594 16.9416 11.2647 16.7628 13.195 17.1084C14.8681 17.4081 16.4669 18.0238 18.1444 18.3275C20.2012 18.7 22.0309 18.54 23.9966 17.81L24.5241 17.6141V19.4244L24.2631 19.5166C22.7622 20.0469 21.2184 20.3072 19.6241 20.2275C18.4903 20.1709 17.3819 19.9453 16.2869 19.6563C15.3322 19.4041 14.3881 19.105 13.4231 18.8959C11.9353 18.5731 10.5891 18.5397 9.13531 19.0472C8.79062 19.1678 8.455 19.3131 8.12875 19.4766L7.5625 19.7606V17.8831L7.78781 17.7778Z" fill="#46C3D4"/>
<rect x="4" y="4" width="24" height="24" stroke="white" stroke-width="4"/>
</g>
<rect x="2" y="2" width="28" height="28" stroke="white" stroke-width="4"/>
<defs>
<clipPath id="clip0">
</clipPath>
</defs>
</svg>
