<svg width="24" height="24" viewBox="0 0 24 24" fill="none" xmlns="http://www.w3.org/2000/svg">
<g clip-path="url(#clip0)">
<rect width="24" height="24" fill="white"/>
<path fill-rule="evenodd" clip-rule="evenodd" d="M17.36 19.5891H20.5241L19.0919 16.3922C18.11 16.6309 17.1103 16.7547 16.0922 16.7469C16.4166 17.4762 16.8222 18.3859 17.36 19.5891ZM5.39813 15.4916L3.56281 19.5891H6.70438C7.73188 17.3291 8.29125 16.0941 8.66063 15.2669C7.55219 15.0938 6.50563 15.1228 5.39813 15.4916ZM16.7756 11.2213L13.6247 4.1875H10.4613L8.00125 9.67875C8.42031 9.70406 8.84656 9.75594 9.28406 9.83469C9.81 9.92906 10.3284 10.0541 10.8431 10.1906C11.1634 9.44844 11.5559 8.54406 12.0431 7.42469C12.6906 8.9125 13.1759 10.0322 13.5575 10.915C13.7825 10.9656 14.0075 11.0128 14.2344 11.0541C15.1131 11.2128 15.9509 11.2694 16.7756 11.2213Z" fill="#133562"/>
<path fill-rule="evenodd" clip-rule="evenodd" d="M3.78781 11.0013C5.57594 10.1653 7.26469 9.98626 9.195 10.3322C10.8681 10.6319 12.4669 11.2472 14.1444 11.5513C16.2012 11.9238 18.0309 11.7638 19.9966 11.0338L20.5241 10.8378V12.6481L20.2631 12.7403C18.7622 13.2706 17.2184 13.5306 15.6241 13.4513C14.4903 13.3947 13.3819 13.1691 12.2869 12.8797C11.3322 12.6278 10.3881 12.3288 9.42312 12.1194C7.93531 11.7969 6.58906 11.7634 5.13531 12.2709C4.79062 12.3913 4.455 12.5366 4.12875 12.7003L3.5625 12.9841V11.1066L3.78781 11.0013Z" fill="#46C3D4"/>
<path fill-rule="evenodd" clip-rule="evenodd" d="M3.78781 13.7778C5.57594 12.9416 7.26469 12.7628 9.195 13.1084C10.8681 13.4081 12.4669 14.0238 14.1444 14.3275C16.2012 14.7 18.0309 14.54 19.9966 13.81L20.5241 13.6141V15.4244L20.2631 15.5166C18.7622 16.0469 17.2184 16.3072 15.6241 16.2275C14.4903 16.1709 13.3819 15.9453 12.2869 15.6563C11.3322 15.4041 10.3881 15.105 9.42312 14.8959C7.93531 14.5731 6.58906 14.5397 5.13531 15.0472C4.79062 15.1678 4.455 15.3131 4.12875 15.4766L3.5625 15.7606V13.8831L3.78781 13.7778Z" fill="#46C3D4"/>
<rect width="24" height="24" stroke="white" stroke-width="4"/>
</g>
<defs>
<clipPath id="clip0">
<rect width="24" height="24" fill="white"/>
</clipPath>
</defs>
</svg>
