<svg width="64" height="64" viewBox="0 0 64 64" fill="none" xmlns="http://www.w3.org/2000/svg">
<path fill-rule="evenodd" clip-rule="evenodd" d="M32 64C49.6731 64 64 49.6731 64 32C64 14.3269 49.6731 0 32 0C14.3269 0 0 14.3269 0 32C0 49.6731 14.3269 64 32 64ZM15 38C18.3137 38 21 35.3137 21 32C21 28.6863 18.3137 26 15 26C11.6863 26 9 28.6863 9 32C9 35.3137 11.6863 38 15 38ZM38 32C38 35.3137 35.3137 38 32 38C28.6863 38 26 35.3137 26 32C26 28.6863 28.6863 26 32 26C35.3137 26 38 28.6863 38 32ZM49 38C52.3137 38 55 35.3137 55 32C55 28.6863 52.3137 26 49 26C45.6863 26 43 28.6863 43 32C43 35.3137 45.6863 38 49 38Z" fill="#FAB81F"/>
</svg>
