<svg width="48" height="48" viewBox="0 0 48 48" fill="none" xmlns="http://www.w3.org/2000/svg">
<path d="M5.69 37H1V47H11V37H7.75403C9.40603 31.64 13.64 27.406 19 25.754V29H29V25H41.184C41.598 26.16 42.7 27 44 27C45.654 27 47 25.654 47 24C47 22.346 45.654 21 44 21C42.7 21 41.598 21.84 41.184 23H32.434C37.23 20.61 40.872 16.262 42.31 11H47V1H37V11H40.246C38.594 16.36 34.36 20.594 29 22.246V19H19V23H6.81598C6.40198 21.84 5.3 21 4 21C2.346 21 1 22.346 1 24C1 25.654 2.346 27 4 27C5.3 27 6.40198 26.16 6.81598 25H15.566C10.77 27.39 7.128 31.738 5.69 37ZM9 39V45H3V39H9ZM39 9V3H45V9H39ZM21 21H27V27H21V21Z" fill="#FAB81F"/>
</svg>
