<svg width="48" height="48" viewBox="0 0 48 48" fill="none" xmlns="http://www.w3.org/2000/svg">
<path d="M11.25 15C10.0035 15 9 16.0035 9 17.25V30.75C9 31.9965 10.0035 33 11.25 33H36.75C37.9965 33 39 31.9965 39 30.75V27.75H39.75C40.581 27.75 41.25 27.081 41.25 26.25V21.75C41.25 20.919 40.581 20.25 39.75 20.25H39V17.25C39 16.0035 37.9965 15 36.75 15H11.25ZM25.1147 18.3867C25.2462 18.3867 25.3471 18.5055 25.3286 18.6357L24.6973 23.1079H26.0698C26.2356 23.1079 26.3405 23.2866 26.2603 23.4316L22.8896 29.5005C22.7722 29.7101 22.4527 29.6023 22.4854 29.3643L23.1152 24.8921H21.7427C21.5769 24.8921 21.472 24.7134 21.5522 24.5684L24.9229 18.4995C24.9615 18.4298 25.035 18.3867 25.1147 18.3867V18.3867Z" fill="#FAB81F"/>
</svg>
