<svg width="140" height="140" viewBox="0 0 140 140" fill="none" xmlns="http://www.w3.org/2000/svg">
<path d="M44.9925 25.8449C44.3259 25.4675 43.4999 25.9491 43.4999 26.7151L43.5 54.417C43.5 54.7773 43.6938 55.1097 44.0074 55.2872L69.9999 70L43.9926 84.7212C43.687 84.8941 43.313 84.8942 43.0074 84.7212L18.4926 70.8449C17.826 70.4675 17 70.9491 17 71.7151L17 99.417C17 99.7773 17.1938 100.11 17.5074 100.287L43.0074 114.721C43.313 114.894 43.687 114.894 43.9926 114.721L69.5074 100.279C69.813 100.106 70.187 100.106 70.4926 100.279L96.0074 114.721C96.313 114.894 96.687 114.894 96.9926 114.721L122.493 100.287C122.806 100.11 123 99.7773 123 99.417L123 71.7151C123 70.9491 122.174 70.4675 121.507 70.8449L96.9926 84.7212C96.687 84.8942 96.313 84.8942 96.0074 84.7212L69.9999 70L95.9925 55.2872C96.3061 55.1097 96.4999 54.7773 96.4999 54.417L96.5 26.7151C96.5 25.9491 95.674 25.4675 95.0074 25.8449L70.4926 39.7212C70.187 39.8942 69.813 39.8942 69.5074 39.7212L44.9925 25.8449Z" fill="#1B7BE3"/>
</svg>
